<mxfile host="app.diagrams.net" modified="2020-12-15T05:43:11.718Z" agent="5.0 (Windows NT 10.0; Win64; x64) AppleWebKit/537.36 (KHTML, like Gecko) Chrome/87.0.4280.88 Safari/537.36 Edg/87.0.664.57" etag="V4cmo--lKtXM3JHpCzd1" version="14.0.1" type="github">
  <diagram id="R2lEEEUBdFMjLlhIrx00" name="Page-1">
    <mxGraphModel dx="782" dy="435" grid="1" gridSize="10" guides="1" tooltips="1" connect="1" arrows="1" fold="1" page="1" pageScale="1" pageWidth="850" pageHeight="1100" math="0" shadow="0" extFonts="Permanent Marker^https://fonts.googleapis.com/css?family=Permanent+Marker">
      <root>
        <mxCell id="0" />
        <mxCell id="1" parent="0" />
        <mxCell id="C-vyLk0tnHw3VtMMgP7b-23" value="watershed" style="shape=table;startSize=40;container=1;collapsible=1;childLayout=tableLayout;fixedRows=1;rowLines=0;fontStyle=1;align=center;resizeLast=1;" parent="1" vertex="1">
          <mxGeometry x="90" y="40" width="350" height="250" as="geometry">
            <mxRectangle x="100" y="130" width="90" height="40" as="alternateBounds" />
          </mxGeometry>
        </mxCell>
        <mxCell id="C-vyLk0tnHw3VtMMgP7b-24" value="" style="shape=partialRectangle;collapsible=0;dropTarget=0;pointerEvents=0;fillColor=none;points=[[0,0.5],[1,0.5]];portConstraint=eastwest;top=0;left=0;right=0;bottom=1;" parent="C-vyLk0tnHw3VtMMgP7b-23" vertex="1">
          <mxGeometry y="40" width="350" height="30" as="geometry" />
        </mxCell>
        <mxCell id="C-vyLk0tnHw3VtMMgP7b-25" value="PK" style="shape=partialRectangle;overflow=hidden;connectable=0;fillColor=none;top=0;left=0;bottom=0;right=0;fontStyle=1;" parent="C-vyLk0tnHw3VtMMgP7b-24" vertex="1">
          <mxGeometry width="30" height="30" as="geometry" />
        </mxCell>
        <mxCell id="C-vyLk0tnHw3VtMMgP7b-26" value="id int NOT NULL " style="shape=partialRectangle;overflow=hidden;connectable=0;fillColor=none;top=0;left=0;bottom=0;right=0;align=left;spacingLeft=6;fontStyle=5;labelBorderColor=#000000;" parent="C-vyLk0tnHw3VtMMgP7b-24" vertex="1">
          <mxGeometry x="30" width="320" height="30" as="geometry" />
        </mxCell>
        <mxCell id="C-vyLk0tnHw3VtMMgP7b-27" value="" style="shape=partialRectangle;collapsible=0;dropTarget=0;pointerEvents=0;points=[[0,0.5],[1,0.5]];portConstraint=eastwest;top=0;left=0;right=0;bottom=0;fillColor=none;" parent="C-vyLk0tnHw3VtMMgP7b-23" vertex="1">
          <mxGeometry y="70" width="350" height="30" as="geometry" />
        </mxCell>
        <mxCell id="C-vyLk0tnHw3VtMMgP7b-28" value="" style="shape=partialRectangle;overflow=hidden;connectable=0;fillColor=none;top=0;left=0;bottom=0;right=0;" parent="C-vyLk0tnHw3VtMMgP7b-27" vertex="1">
          <mxGeometry width="30" height="30" as="geometry" />
        </mxCell>
        <mxCell id="C-vyLk0tnHw3VtMMgP7b-29" value="name char(50) NOT NULL COMMENT “流域名称”" style="shape=partialRectangle;overflow=hidden;connectable=0;fillColor=none;top=0;left=0;bottom=0;right=0;align=left;spacingLeft=6;" parent="C-vyLk0tnHw3VtMMgP7b-27" vertex="1">
          <mxGeometry x="30" width="320" height="30" as="geometry" />
        </mxCell>
        <mxCell id="U7U7_Ja1hENndMzEPE-T-7" style="shape=partialRectangle;collapsible=0;dropTarget=0;pointerEvents=0;points=[[0,0.5],[1,0.5]];portConstraint=eastwest;top=0;left=0;right=0;bottom=0;fillColor=none;" vertex="1" parent="C-vyLk0tnHw3VtMMgP7b-23">
          <mxGeometry y="100" width="350" height="30" as="geometry" />
        </mxCell>
        <mxCell id="U7U7_Ja1hENndMzEPE-T-8" value="FK" style="shape=partialRectangle;overflow=hidden;connectable=0;fillColor=none;top=0;left=0;bottom=0;right=0;" vertex="1" parent="U7U7_Ja1hENndMzEPE-T-7">
          <mxGeometry width="30" height="30" as="geometry" />
        </mxCell>
        <mxCell id="U7U7_Ja1hENndMzEPE-T-9" value="project_id int NOT NULL COMMENT “项目ID”  " style="shape=partialRectangle;overflow=hidden;connectable=0;fillColor=none;top=0;left=0;bottom=0;right=0;align=left;spacingLeft=6;" vertex="1" parent="U7U7_Ja1hENndMzEPE-T-7">
          <mxGeometry x="30" width="320" height="30" as="geometry" />
        </mxCell>
        <mxCell id="U7U7_Ja1hENndMzEPE-T-4" style="shape=partialRectangle;collapsible=0;dropTarget=0;pointerEvents=0;points=[[0,0.5],[1,0.5]];portConstraint=eastwest;top=0;left=0;right=0;bottom=0;fillColor=none;" vertex="1" parent="C-vyLk0tnHw3VtMMgP7b-23">
          <mxGeometry y="130" width="350" height="30" as="geometry" />
        </mxCell>
        <mxCell id="U7U7_Ja1hENndMzEPE-T-5" style="shape=partialRectangle;overflow=hidden;connectable=0;fillColor=none;top=0;left=0;bottom=0;right=0;" vertex="1" parent="U7U7_Ja1hENndMzEPE-T-4">
          <mxGeometry width="30" height="30" as="geometry" />
        </mxCell>
        <mxCell id="U7U7_Ja1hENndMzEPE-T-6" value="root_watershed_id int NOT NULL COMMENT “根流域ID” " style="shape=partialRectangle;overflow=hidden;connectable=0;fillColor=none;top=0;left=0;bottom=0;right=0;align=left;spacingLeft=6;" vertex="1" parent="U7U7_Ja1hENndMzEPE-T-4">
          <mxGeometry x="30" width="320" height="30" as="geometry" />
        </mxCell>
        <mxCell id="U7U7_Ja1hENndMzEPE-T-42" style="shape=partialRectangle;collapsible=0;dropTarget=0;pointerEvents=0;points=[[0,0.5],[1,0.5]];portConstraint=eastwest;top=0;left=0;right=0;bottom=0;fillColor=none;" vertex="1" parent="C-vyLk0tnHw3VtMMgP7b-23">
          <mxGeometry y="160" width="350" height="30" as="geometry" />
        </mxCell>
        <mxCell id="U7U7_Ja1hENndMzEPE-T-43" style="shape=partialRectangle;overflow=hidden;connectable=0;fillColor=none;top=0;left=0;bottom=0;right=0;" vertex="1" parent="U7U7_Ja1hENndMzEPE-T-42">
          <mxGeometry width="30" height="30" as="geometry" />
        </mxCell>
        <mxCell id="U7U7_Ja1hENndMzEPE-T-44" value="pre_watershed_id int NOT NULL COMMENT “前置流域ID” " style="shape=partialRectangle;overflow=hidden;connectable=0;fillColor=none;top=0;left=0;bottom=0;right=0;align=left;spacingLeft=6;" vertex="1" parent="U7U7_Ja1hENndMzEPE-T-42">
          <mxGeometry x="30" width="320" height="30" as="geometry" />
        </mxCell>
        <mxCell id="U7U7_Ja1hENndMzEPE-T-61" style="shape=partialRectangle;collapsible=0;dropTarget=0;pointerEvents=0;points=[[0,0.5],[1,0.5]];portConstraint=eastwest;top=0;left=0;right=0;bottom=0;fillColor=none;" vertex="1" parent="C-vyLk0tnHw3VtMMgP7b-23">
          <mxGeometry y="190" width="350" height="30" as="geometry" />
        </mxCell>
        <mxCell id="U7U7_Ja1hENndMzEPE-T-62" style="shape=partialRectangle;overflow=hidden;connectable=0;fillColor=none;top=0;left=0;bottom=0;right=0;" vertex="1" parent="U7U7_Ja1hENndMzEPE-T-61">
          <mxGeometry width="30" height="30" as="geometry" />
        </mxCell>
        <mxCell id="U7U7_Ja1hENndMzEPE-T-63" value="create_datetime datetime NOT NULL" style="shape=partialRectangle;overflow=hidden;connectable=0;fillColor=none;top=0;left=0;bottom=0;right=0;align=left;spacingLeft=6;" vertex="1" parent="U7U7_Ja1hENndMzEPE-T-61">
          <mxGeometry x="30" width="320" height="30" as="geometry" />
        </mxCell>
        <mxCell id="U7U7_Ja1hENndMzEPE-T-79" style="shape=partialRectangle;collapsible=0;dropTarget=0;pointerEvents=0;points=[[0,0.5],[1,0.5]];portConstraint=eastwest;top=0;left=0;right=0;bottom=0;fillColor=none;" vertex="1" parent="C-vyLk0tnHw3VtMMgP7b-23">
          <mxGeometry y="220" width="350" height="30" as="geometry" />
        </mxCell>
        <mxCell id="U7U7_Ja1hENndMzEPE-T-80" style="shape=partialRectangle;overflow=hidden;connectable=0;fillColor=none;top=0;left=0;bottom=0;right=0;" vertex="1" parent="U7U7_Ja1hENndMzEPE-T-79">
          <mxGeometry width="30" height="30" as="geometry" />
        </mxCell>
        <mxCell id="U7U7_Ja1hENndMzEPE-T-81" value="update_datetime datetime NOT NULL" style="shape=partialRectangle;overflow=hidden;connectable=0;fillColor=none;top=0;left=0;bottom=0;right=0;align=left;spacingLeft=6;" vertex="1" parent="U7U7_Ja1hENndMzEPE-T-79">
          <mxGeometry x="30" width="320" height="30" as="geometry" />
        </mxCell>
        <mxCell id="U7U7_Ja1hENndMzEPE-T-64" value="project" style="shape=table;startSize=30;container=1;collapsible=1;childLayout=tableLayout;fixedRows=1;rowLines=0;fontStyle=1;align=center;resizeLast=1;strokeColor=#000000;fillColor=none;" vertex="1" parent="1">
          <mxGeometry x="590" y="30" width="180" height="160" as="geometry" />
        </mxCell>
        <mxCell id="U7U7_Ja1hENndMzEPE-T-65" value="" style="shape=partialRectangle;collapsible=0;dropTarget=0;pointerEvents=0;fillColor=none;top=0;left=0;bottom=1;right=0;points=[[0,0.5],[1,0.5]];portConstraint=eastwest;" vertex="1" parent="U7U7_Ja1hENndMzEPE-T-64">
          <mxGeometry y="30" width="180" height="30" as="geometry" />
        </mxCell>
        <mxCell id="U7U7_Ja1hENndMzEPE-T-66" value="PK" style="shape=partialRectangle;connectable=0;fillColor=none;top=0;left=0;bottom=0;right=0;fontStyle=1;overflow=hidden;" vertex="1" parent="U7U7_Ja1hENndMzEPE-T-65">
          <mxGeometry width="30" height="30" as="geometry" />
        </mxCell>
        <mxCell id="U7U7_Ja1hENndMzEPE-T-67" value="id int NOT NULL" style="shape=partialRectangle;connectable=0;fillColor=none;top=0;left=0;bottom=0;right=0;align=left;spacingLeft=6;fontStyle=5;overflow=hidden;" vertex="1" parent="U7U7_Ja1hENndMzEPE-T-65">
          <mxGeometry x="30" width="150" height="30" as="geometry" />
        </mxCell>
        <mxCell id="U7U7_Ja1hENndMzEPE-T-68" value="" style="shape=partialRectangle;collapsible=0;dropTarget=0;pointerEvents=0;fillColor=none;top=0;left=0;bottom=0;right=0;points=[[0,0.5],[1,0.5]];portConstraint=eastwest;" vertex="1" parent="U7U7_Ja1hENndMzEPE-T-64">
          <mxGeometry y="60" width="180" height="30" as="geometry" />
        </mxCell>
        <mxCell id="U7U7_Ja1hENndMzEPE-T-69" value="" style="shape=partialRectangle;connectable=0;fillColor=none;top=0;left=0;bottom=0;right=0;editable=1;overflow=hidden;" vertex="1" parent="U7U7_Ja1hENndMzEPE-T-68">
          <mxGeometry width="30" height="30" as="geometry" />
        </mxCell>
        <mxCell id="U7U7_Ja1hENndMzEPE-T-70" value="Row 1" style="shape=partialRectangle;connectable=0;fillColor=none;top=0;left=0;bottom=0;right=0;align=left;spacingLeft=6;overflow=hidden;" vertex="1" parent="U7U7_Ja1hENndMzEPE-T-68">
          <mxGeometry x="30" width="150" height="30" as="geometry" />
        </mxCell>
        <mxCell id="U7U7_Ja1hENndMzEPE-T-71" value="" style="shape=partialRectangle;collapsible=0;dropTarget=0;pointerEvents=0;fillColor=none;top=0;left=0;bottom=0;right=0;points=[[0,0.5],[1,0.5]];portConstraint=eastwest;" vertex="1" parent="U7U7_Ja1hENndMzEPE-T-64">
          <mxGeometry y="90" width="180" height="30" as="geometry" />
        </mxCell>
        <mxCell id="U7U7_Ja1hENndMzEPE-T-72" value="" style="shape=partialRectangle;connectable=0;fillColor=none;top=0;left=0;bottom=0;right=0;editable=1;overflow=hidden;" vertex="1" parent="U7U7_Ja1hENndMzEPE-T-71">
          <mxGeometry width="30" height="30" as="geometry" />
        </mxCell>
        <mxCell id="U7U7_Ja1hENndMzEPE-T-73" value="Row 2" style="shape=partialRectangle;connectable=0;fillColor=none;top=0;left=0;bottom=0;right=0;align=left;spacingLeft=6;overflow=hidden;" vertex="1" parent="U7U7_Ja1hENndMzEPE-T-71">
          <mxGeometry x="30" width="150" height="30" as="geometry" />
        </mxCell>
        <mxCell id="U7U7_Ja1hENndMzEPE-T-74" value="" style="shape=partialRectangle;collapsible=0;dropTarget=0;pointerEvents=0;fillColor=none;top=0;left=0;bottom=0;right=0;points=[[0,0.5],[1,0.5]];portConstraint=eastwest;" vertex="1" parent="U7U7_Ja1hENndMzEPE-T-64">
          <mxGeometry y="120" width="180" height="30" as="geometry" />
        </mxCell>
        <mxCell id="U7U7_Ja1hENndMzEPE-T-75" value="" style="shape=partialRectangle;connectable=0;fillColor=none;top=0;left=0;bottom=0;right=0;editable=1;overflow=hidden;" vertex="1" parent="U7U7_Ja1hENndMzEPE-T-74">
          <mxGeometry width="30" height="30" as="geometry" />
        </mxCell>
        <mxCell id="U7U7_Ja1hENndMzEPE-T-76" value="Row 3" style="shape=partialRectangle;connectable=0;fillColor=none;top=0;left=0;bottom=0;right=0;align=left;spacingLeft=6;overflow=hidden;" vertex="1" parent="U7U7_Ja1hENndMzEPE-T-74">
          <mxGeometry x="30" width="150" height="30" as="geometry" />
        </mxCell>
        <mxCell id="U7U7_Ja1hENndMzEPE-T-78" style="edgeStyle=orthogonalEdgeStyle;rounded=1;orthogonalLoop=1;jettySize=auto;html=1;entryX=0;entryY=0.5;entryDx=0;entryDy=0;startArrow=ERzeroToMany;startFill=1;endArrow=ERone;endFill=0;" edge="1" parent="1" source="U7U7_Ja1hENndMzEPE-T-7" target="U7U7_Ja1hENndMzEPE-T-65">
          <mxGeometry relative="1" as="geometry" />
        </mxCell>
        <mxCell id="U7U7_Ja1hENndMzEPE-T-82" value="water_system" style="shape=table;startSize=30;container=1;collapsible=1;childLayout=tableLayout;fixedRows=1;rowLines=0;fontStyle=1;align=center;resizeLast=1;strokeColor=#000000;fillColor=none;" vertex="1" parent="1">
          <mxGeometry x="90" y="330" width="350" height="180" as="geometry" />
        </mxCell>
        <mxCell id="U7U7_Ja1hENndMzEPE-T-83" value="" style="shape=partialRectangle;collapsible=0;dropTarget=0;pointerEvents=0;fillColor=none;top=0;left=0;bottom=1;right=0;points=[[0,0.5],[1,0.5]];portConstraint=eastwest;" vertex="1" parent="U7U7_Ja1hENndMzEPE-T-82">
          <mxGeometry y="30" width="350" height="30" as="geometry" />
        </mxCell>
        <mxCell id="U7U7_Ja1hENndMzEPE-T-84" value="PK" style="shape=partialRectangle;connectable=0;fillColor=none;top=0;left=0;bottom=0;right=0;fontStyle=1;overflow=hidden;" vertex="1" parent="U7U7_Ja1hENndMzEPE-T-83">
          <mxGeometry width="30" height="30" as="geometry" />
        </mxCell>
        <mxCell id="U7U7_Ja1hENndMzEPE-T-85" value="id int NOT NULL" style="shape=partialRectangle;connectable=0;fillColor=none;top=0;left=0;bottom=0;right=0;align=left;spacingLeft=6;fontStyle=5;overflow=hidden;" vertex="1" parent="U7U7_Ja1hENndMzEPE-T-83">
          <mxGeometry x="30" width="320" height="30" as="geometry" />
        </mxCell>
        <mxCell id="U7U7_Ja1hENndMzEPE-T-86" value="" style="shape=partialRectangle;collapsible=0;dropTarget=0;pointerEvents=0;fillColor=none;top=0;left=0;bottom=0;right=0;points=[[0,0.5],[1,0.5]];portConstraint=eastwest;" vertex="1" parent="U7U7_Ja1hENndMzEPE-T-82">
          <mxGeometry y="60" width="350" height="30" as="geometry" />
        </mxCell>
        <mxCell id="U7U7_Ja1hENndMzEPE-T-87" value="" style="shape=partialRectangle;connectable=0;fillColor=none;top=0;left=0;bottom=0;right=0;editable=1;overflow=hidden;" vertex="1" parent="U7U7_Ja1hENndMzEPE-T-86">
          <mxGeometry width="30" height="30" as="geometry" />
        </mxCell>
        <mxCell id="U7U7_Ja1hENndMzEPE-T-88" value="name varchar(64) NOT NULL COMMENT &quot;水系名称&quot;" style="shape=partialRectangle;connectable=0;fillColor=none;top=0;left=0;bottom=0;right=0;align=left;spacingLeft=6;overflow=hidden;" vertex="1" parent="U7U7_Ja1hENndMzEPE-T-86">
          <mxGeometry x="30" width="320" height="30" as="geometry" />
        </mxCell>
        <mxCell id="U7U7_Ja1hENndMzEPE-T-89" value="" style="shape=partialRectangle;collapsible=0;dropTarget=0;pointerEvents=0;fillColor=none;top=0;left=0;bottom=0;right=0;points=[[0,0.5],[1,0.5]];portConstraint=eastwest;" vertex="1" parent="U7U7_Ja1hENndMzEPE-T-82">
          <mxGeometry y="90" width="350" height="30" as="geometry" />
        </mxCell>
        <mxCell id="U7U7_Ja1hENndMzEPE-T-90" value="" style="shape=partialRectangle;connectable=0;fillColor=none;top=0;left=0;bottom=0;right=0;editable=1;overflow=hidden;" vertex="1" parent="U7U7_Ja1hENndMzEPE-T-89">
          <mxGeometry width="30" height="30" as="geometry" />
        </mxCell>
        <mxCell id="U7U7_Ja1hENndMzEPE-T-91" value="root_water_system_id NOT NULL COMMENT “根水系ID”" style="shape=partialRectangle;connectable=0;fillColor=none;top=0;left=0;bottom=0;right=0;align=left;spacingLeft=6;overflow=hidden;" vertex="1" parent="U7U7_Ja1hENndMzEPE-T-89">
          <mxGeometry x="30" width="320" height="30" as="geometry" />
        </mxCell>
        <mxCell id="U7U7_Ja1hENndMzEPE-T-92" value="" style="shape=partialRectangle;collapsible=0;dropTarget=0;pointerEvents=0;fillColor=none;top=0;left=0;bottom=0;right=0;points=[[0,0.5],[1,0.5]];portConstraint=eastwest;" vertex="1" parent="U7U7_Ja1hENndMzEPE-T-82">
          <mxGeometry y="120" width="350" height="30" as="geometry" />
        </mxCell>
        <mxCell id="U7U7_Ja1hENndMzEPE-T-93" value="" style="shape=partialRectangle;connectable=0;fillColor=none;top=0;left=0;bottom=0;right=0;editable=1;overflow=hidden;" vertex="1" parent="U7U7_Ja1hENndMzEPE-T-92">
          <mxGeometry width="30" height="30" as="geometry" />
        </mxCell>
        <mxCell id="U7U7_Ja1hENndMzEPE-T-94" value="create_datetime datetime NOT NULL" style="shape=partialRectangle;connectable=0;fillColor=none;top=0;left=0;bottom=0;right=0;align=left;spacingLeft=6;overflow=hidden;" vertex="1" parent="U7U7_Ja1hENndMzEPE-T-92">
          <mxGeometry x="30" width="320" height="30" as="geometry" />
        </mxCell>
        <mxCell id="U7U7_Ja1hENndMzEPE-T-99" style="shape=partialRectangle;collapsible=0;dropTarget=0;pointerEvents=0;fillColor=none;top=0;left=0;bottom=0;right=0;points=[[0,0.5],[1,0.5]];portConstraint=eastwest;" vertex="1" parent="U7U7_Ja1hENndMzEPE-T-82">
          <mxGeometry y="150" width="350" height="30" as="geometry" />
        </mxCell>
        <mxCell id="U7U7_Ja1hENndMzEPE-T-100" style="shape=partialRectangle;connectable=0;fillColor=none;top=0;left=0;bottom=0;right=0;editable=1;overflow=hidden;" vertex="1" parent="U7U7_Ja1hENndMzEPE-T-99">
          <mxGeometry width="30" height="30" as="geometry" />
        </mxCell>
        <mxCell id="U7U7_Ja1hENndMzEPE-T-101" value="update_datetime datetime NOT NULL " style="shape=partialRectangle;connectable=0;fillColor=none;top=0;left=0;bottom=0;right=0;align=left;spacingLeft=6;overflow=hidden;" vertex="1" parent="U7U7_Ja1hENndMzEPE-T-99">
          <mxGeometry x="30" width="320" height="30" as="geometry" />
        </mxCell>
        <mxCell id="U7U7_Ja1hENndMzEPE-T-98" style="edgeStyle=orthogonalEdgeStyle;orthogonalLoop=1;jettySize=auto;html=1;exitX=0;exitY=0.5;exitDx=0;exitDy=0;entryX=0;entryY=0.5;entryDx=0;entryDy=0;startArrow=ERmandOne;startFill=0;endArrow=ERmandOne;endFill=0;rounded=1;" edge="1" parent="1" source="C-vyLk0tnHw3VtMMgP7b-24" target="U7U7_Ja1hENndMzEPE-T-83">
          <mxGeometry relative="1" as="geometry" />
        </mxCell>
      </root>
    </mxGraphModel>
  </diagram>
</mxfile>
